<svg width="24" height="24" viewBox="0 0 24 24" fill="none" xmlns="http://www.w3.org/2000/svg">
    <path fill-rule="evenodd" clip-rule="evenodd" d="M12.3867 6.1349L4.3937 14.1279L3.3035 18.1941L2.5864 20.8729C2.56648 20.9477 2.56658 21.0265 2.58669 21.1013C2.60679 21.176 2.6462 21.2442 2.70096 21.299C2.75572 21.3538 2.82391 21.3932 2.8987 21.4133C2.97349 21.4334 3.05225 21.4335 3.12709 21.4136L5.80407 20.6956L9.87115 19.6054H9.87203L17.8651 11.6124L12.3876 6.1349H12.3867ZM21.1701 7.06104L16.9398 2.8299C16.858 2.74792 16.7608 2.68288 16.6538 2.63851C16.5468 2.59413 16.432 2.57129 16.3162 2.57129C16.2004 2.57129 16.0857 2.59413 15.9787 2.63851C15.8717 2.68288 15.7744 2.74792 15.6926 2.8299L13.5096 5.01207L18.9879 10.4904L21.1701 8.30736C21.252 8.22552 21.3171 8.12831 21.3615 8.02131C21.4058 7.9143 21.4287 7.7996 21.4287 7.68376C21.4287 7.56792 21.4058 7.45321 21.3615 7.34621C21.3171 7.2392 21.252 7.142 21.1701 7.06016" fill="#8E8E93"/>
</svg>
