<svg width="15" height="16" viewBox="0 0 15 16" fill="none" xmlns="http://www.w3.org/2000/svg">
    <path fill-rule="evenodd" clip-rule="evenodd"
        d="M13.2385 7.1H7.98851V1.85C7.98851 1.6113 7.89369 1.38238 7.72491 1.2136C7.55613 1.04482 7.32721 0.949997 7.08851 0.949997C6.84982 0.949997 6.6209 1.04482 6.45212 1.2136C6.28333 1.38238 6.18851 1.6113 6.18851 1.85V7.1H0.938513C0.699818 7.1 0.4709 7.19482 0.302117 7.3636C0.133334 7.53238 0.0385132 7.7613 0.0385132 8C0.0385132 8.23869 0.133334 8.46761 0.302117 8.63639C0.4709 8.80518 0.699818 8.9 0.938513 8.9H6.18851V14.15C6.18851 14.3887 6.28333 14.6176 6.45212 14.7864C6.6209 14.9552 6.84982 15.05 7.08851 15.05C7.32721 15.05 7.55613 14.9552 7.72491 14.7864C7.89369 14.6176 7.98851 14.3887 7.98851 14.15V8.9H13.2385C13.4772 8.9 13.7061 8.80518 13.8749 8.63639C14.0437 8.46761 14.1385 8.23869 14.1385 8C14.1385 7.7613 14.0437 7.53238 13.8749 7.3636C13.7061 7.19482 13.4772 7.1 13.2385 7.1"
        fill="#636366" />
</svg>
