<svg width="28" height="28" viewBox="0 0 28 28" fill="none" xmlns="http://www.w3.org/2000/svg">
<path fill-rule="evenodd" clip-rule="evenodd" d="M10.0625 23.4501C9.66001 23.4501 9.25751 23.2926 8.94251 22.9951C8.64863 22.6999 8.48364 22.3004 8.48364 21.8838C8.48364 21.4673 8.64863 21.0678 8.94251 20.7726L15.715 14.0001L8.94251 7.24509C8.64863 6.94992 8.48364 6.55036 8.48364 6.13384C8.48364 5.71732 8.64863 5.31776 8.94251 5.02259C9.23768 4.72871 9.63724 4.56372 10.0538 4.56372C10.4703 4.56372 10.8698 4.72871 11.165 5.02259L19.04 12.8976C19.3339 13.1928 19.4989 13.5923 19.4989 14.0088C19.4989 14.4254 19.3339 14.8249 19.04 15.1201L11.165 22.9951C10.8675 23.2926 10.465 23.4501 10.0625 23.4501Z" fill="#8B95A1"/>
</svg>
