<svg width="28" height="28" viewBox="0 0 28 28" fill="none" xmlns="http://www.w3.org/2000/svg">
<path fill-rule="evenodd" clip-rule="evenodd" d="M15.1667 13.7212C15.1667 13.7597 15.148 13.7935 15.1445 13.8308C15.1379 13.9099 15.1219 13.9878 15.0967 14.063C15.0544 14.2025 14.9855 14.3325 14.8937 14.4457C14.8423 14.5075 14.7887 14.5623 14.7257 14.6137C14.6965 14.637 14.679 14.6708 14.6475 14.6918L9.13383 18.3668C8.87637 18.532 8.56434 18.5894 8.26494 18.5268C7.96554 18.4641 7.70272 18.2864 7.53308 18.0319C7.36344 17.7773 7.30055 17.4664 7.35795 17.1659C7.41536 16.8655 7.58847 16.5996 7.84 16.4255L12.8333 13.097V7.64867C12.8333 7.33925 12.9562 7.0425 13.175 6.82371C13.3938 6.60492 13.6906 6.482 14 6.482C14.3094 6.482 14.6062 6.60492 14.825 6.82371C15.0437 7.0425 15.1667 7.33925 15.1667 7.64867V13.7212ZM14 1.75C7.2345 1.75 1.75 7.2345 1.75 14C1.75 20.7655 7.2345 26.25 14 26.25C20.7655 26.25 26.25 20.7655 26.25 14C26.25 7.2345 20.7655 1.75 14 1.75Z" fill="#8B95A1"/>
</svg>
