<svg width="16" height="16" viewBox="0 0 16 16" fill="none" xmlns="http://www.w3.org/2000/svg">
    <path fill-rule="evenodd" clip-rule="evenodd" d="M10.044 11.1574C10.044 11.3165 9.98074 11.4692 9.86822 11.5817C9.7557 11.6942 9.60309 11.7574 9.44396 11.7574C9.28483 11.7574 9.13222 11.6942 9.01969 11.5817C8.90717 11.4692 8.84396 11.3165 8.84396 11.1574V7.82009C8.84396 7.66096 8.90717 7.50834 9.01969 7.39582C9.13222 7.2833 9.28483 7.22009 9.44396 7.22009C9.60309 7.22009 9.7557 7.2833 9.86822 7.39582C9.98074 7.50834 10.044 7.66096 10.044 7.82009V11.1574ZM7.28863 11.1574C7.28863 11.3165 7.22541 11.4692 7.11289 11.5817C7.00037 11.6942 6.84776 11.7574 6.68863 11.7574C6.5295 11.7574 6.37688 11.6942 6.26436 11.5817C6.15184 11.4692 6.08863 11.3165 6.08863 11.1574V7.82009C6.08863 7.66096 6.15184 7.50834 6.26436 7.39582C6.37688 7.2833 6.5295 7.22009 6.68863 7.22009C6.84776 7.22009 7.00037 7.2833 7.11289 7.39582C7.22541 7.50834 7.28863 7.66096 7.28863 7.82009V11.1574ZM6.01929 2.57275C6.01929 2.39594 6.08953 2.22637 6.21455 2.10135C6.33958 1.97633 6.50915 1.90609 6.68596 1.90609H9.44863C9.81596 1.90609 10.1153 2.20475 10.1153 2.57275V3.20009H6.01929V2.57275ZM13.5326 3.20009H11.4486V2.57275C11.4486 1.47009 10.552 0.572754 9.44863 0.572754H6.68596C5.58329 0.572754 4.68596 1.47009 4.68596 2.57275V3.20009H2.46663C2.25445 3.20009 2.05097 3.28437 1.90094 3.4344C1.75091 3.58443 1.66663 3.78791 1.66663 4.00009V4.40009C1.66663 4.61226 1.75091 4.81574 1.90094 4.96577C2.05097 5.1158 2.25445 5.20009 2.46663 5.20009H2.55396L2.86863 13.2241C2.88499 13.6372 3.06067 14.028 3.35883 14.3145C3.65699 14.601 4.05448 14.7609 4.46796 14.7608H11.6653C12.0786 14.7609 12.476 14.6009 12.7739 14.3144C13.0719 14.0279 13.2473 13.6371 13.2633 13.2241L13.5793 5.19075C13.7822 5.18036 13.9735 5.09261 14.1137 4.94555C14.254 4.79849 14.3325 4.60329 14.3333 4.40009V4.00009C14.3333 3.55875 13.9746 3.20009 13.5326 3.20009Z" fill="#F2F2F7"/>
</svg>
