<svg width="24" height="24" viewBox="0 0 24 24" fill="none" xmlns="http://www.w3.org/2000/svg">
    <path fill-rule="evenodd" clip-rule="evenodd" d="M7.53292 9.21103L10.8869 5.85603V15.037C10.8869 15.3289 11.0029 15.6088 11.2092 15.8152C11.4156 16.0216 11.6956 16.1375 11.9874 16.1375C12.2793 16.1375 12.5592 16.0216 12.7656 15.8152C12.972 15.6088 13.0879 15.3289 13.0879 15.037V5.85703L16.4429 9.21103C16.5447 9.31368 16.6658 9.39515 16.7993 9.45075C16.9327 9.50635 17.0759 9.53498 17.2204 9.53498C17.365 9.53498 17.5081 9.50635 17.6416 9.45075C17.775 9.39515 17.8961 9.31368 17.9979 9.21103C18.1001 9.10888 18.1812 8.98759 18.2365 8.8541C18.2918 8.72061 18.3203 8.57752 18.3203 8.43303C18.3203 8.28853 18.2918 8.14545 18.2365 8.01196C18.1812 7.87846 18.1001 7.75718 17.9979 7.65503L12.7649 2.42203C12.5581 2.2169 12.2787 2.10181 11.9874 2.10181C11.6962 2.10181 11.4167 2.2169 11.2099 2.42203L5.97692 7.65503C5.78292 7.86382 5.67745 8.1397 5.68268 8.42466C5.68791 8.70962 5.80344 8.98145 6.00497 9.18298C6.2065 9.38451 6.47833 9.50004 6.76329 9.50527C7.04825 9.5105 7.32413 9.40503 7.53292 9.21103Z" fill="#636366"/>
    <path fill-rule="evenodd" clip-rule="evenodd" d="M20.381 13.093C19.774 13.093 19.28 13.586 19.28 14.193V18.4C19.28 19.117 18.697 19.7 17.981 19.7H5.99597C5.27897 19.7 4.69597 19.117 4.69597 18.4V14.192C4.69597 13.9003 4.58008 13.6205 4.37379 13.4142C4.1675 13.2079 3.88771 13.092 3.59597 13.092C3.30423 13.092 3.02444 13.2079 2.81815 13.4142C2.61186 13.6205 2.49597 13.9003 2.49597 14.192V18.4C2.49597 20.33 4.06597 21.9 5.99597 21.9H17.981C19.91 21.9 21.481 20.33 21.481 18.4V14.192C21.481 13.9003 21.3651 13.6205 21.1588 13.4142C20.9525 13.2079 20.6727 13.092 20.381 13.092" fill="#636366"/>
</svg>
