<svg width="16" height="16" viewBox="0 0 16 16" fill="none" xmlns="http://www.w3.org/2000/svg">
    <path fill-rule="evenodd" clip-rule="evenodd" d="M5.02195 6.14085L7.25795 3.90418V10.0248C7.25795 10.2194 7.33524 10.406 7.47283 10.5436C7.61042 10.6812 7.79703 10.7585 7.99161 10.7585C8.18619 10.7585 8.37281 10.6812 8.51039 10.5436C8.64798 10.406 8.72528 10.2194 8.72528 10.0248V3.90485L10.9619 6.14085C11.0298 6.20928 11.1106 6.2636 11.1995 6.30066C11.2885 6.33773 11.3839 6.35681 11.4803 6.35681C11.5767 6.35681 11.6721 6.33773 11.761 6.30066C11.85 6.2636 11.9307 6.20928 11.9986 6.14085C12.0667 6.07275 12.1208 5.99189 12.1577 5.9029C12.1945 5.8139 12.2135 5.71851 12.2135 5.62218C12.2135 5.52585 12.1945 5.43046 12.1577 5.34147C12.1208 5.25247 12.0667 5.17162 11.9986 5.10351L8.50995 1.61485C8.37209 1.4781 8.18579 1.40137 7.99161 1.40137C7.79744 1.40137 7.61113 1.4781 7.47328 1.61485L3.98461 5.10351C3.85528 5.24271 3.78497 5.42663 3.78845 5.6166C3.79194 5.80658 3.86896 5.98779 4.00331 6.12215C4.13767 6.2565 4.31889 6.33352 4.50886 6.33701C4.69883 6.3405 4.88275 6.27018 5.02195 6.14085" fill="#F2F2F7"/>
    <path fill-rule="evenodd" clip-rule="evenodd" d="M13.5873 8.72869C13.1826 8.72869 12.8533 9.05736 12.8533 9.46203V12.2667C12.8533 12.7447 12.4646 13.1334 11.9873 13.1334H3.99727C3.51927 13.1334 3.13061 12.7447 3.13061 12.2667V9.46136C3.13061 9.26687 3.05335 9.08034 2.91582 8.94282C2.77829 8.80529 2.59177 8.72803 2.39727 8.72803C2.20278 8.72803 2.01626 8.80529 1.87873 8.94282C1.7412 9.08034 1.66394 9.26687 1.66394 9.46136V12.2667C1.66394 13.5534 2.71061 14.6 3.99727 14.6H11.9873C13.2733 14.6 14.3206 13.5534 14.3206 12.2667V9.46136C14.3206 9.26687 14.2433 9.08034 14.1058 8.94282C13.9683 8.80529 13.7818 8.72803 13.5873 8.72803" fill="#F2F2F7"/>
</svg>
