<svg width="24" height="24" viewBox="0 0 24 24" fill="none" xmlns="http://www.w3.org/2000/svg">
    <path fill-rule="evenodd" clip-rule="evenodd" d="M19.1 8.30005H17.5V10.7H19.1C19.8 10.7 20.3 11.2 20.3 11.9V19.1C20.3 19.8 19.8 20.3 19.1 20.3H11.9C11.2 20.3 10.7 19.8 10.7 19.1V17.7H8.30005V19.1C8.30005 21.1 9.90005 22.7 11.9 22.7H19.1C21.1 22.7 22.7 21.1 22.7 19.1V11.9C22.7 9.90005 21.1 8.30005 19.1 8.30005Z" fill="#636366"/>
    <path fill-rule="evenodd" clip-rule="evenodd" d="M4.90005 3.70005C4.20005 3.70005 3.70005 4.20005 3.70005 4.90005V12.1C3.70005 12.8 4.20005 13.3 4.90005 13.3H12.1C12.8 13.3 13.3 12.8 13.3 12.1V4.90005C13.3 4.20005 12.8 3.70005 12.1 3.70005H4.90005ZM12.1 15.7H4.90005C2.90005 15.7 1.30005 14.1 1.30005 12.1V4.90005C1.30005 2.90005 2.90005 1.30005 4.90005 1.30005H12.1C14.1 1.30005 15.7 2.90005 15.7 4.90005V12.1C15.7 14.1 14.1 15.7 12.1 15.7Z" fill="#636366"/>
</svg>
