<svg width="28" height="28" viewBox="0 0 28 28" fill="none" xmlns="http://www.w3.org/2000/svg">
<path fill-rule="evenodd" clip-rule="evenodd" d="M25.7647 23.4281C25.6515 22.7771 25.0857 22.2999 24.423 22.2999H23.744V11.5257L23.7393 11.2329C23.5853 5.9864 19.2838 1.78174 14 1.78174C8.61933 1.78174 4.25483 6.14391 4.25483 11.5269V22.3011H3.57583C2.91433 22.3011 2.3485 22.7771 2.23417 23.4292L1.75 26.2187H26.25L25.7647 23.4281ZM12.95 8.42357C12.95 7.8449 13.4202 7.37357 14 7.37357C14.581 7.37357 15.05 7.8449 15.05 8.42357V12.7589C15.05 13.3399 14.581 13.8112 14 13.8112C13.4202 13.8112 12.95 13.3399 12.95 12.7589V8.42357ZM14.0012 15.5624C14.7618 15.5624 15.3813 16.1796 15.3813 16.9426C15.3813 17.7044 14.763 18.3227 14.0012 18.3227C13.237 18.3227 12.6187 17.7044 12.6187 16.9426C12.6187 16.1807 13.237 15.5624 14.0012 15.5624Z" fill="#8B95A1"/>
</svg>
